{"title":"Single AF 2018 1080p WEB-DL DD 2.0 x264 [MW]","magnet":"magnet:?xt=urn:btih:4aa4c197e1d23e2be2de425c35e2f46be472ed80&dn=Single+AF+2018+1080p+WEB-DL+DD+2.0+x264+%5BMW%5D&tr=udp%3A%2F%2Ftracker.leechers-paradise.org%3A6969&tr=udp%3A%2F%2Fzer0day.ch%3A1337&tr=udp%3A%2F%2Fopen.demonii.com%3A1337&tr=udp%3A%2F%2Ftracker.coppersurfer.tk%3A6969&tr=udp%3A%2F%2Fexodus.desync.com%3A6969","uploader":"MFreaky","categoryP":"video","categoryS":"hd___movies","size":"968044953","seeders":"0","leechers":"0","description":" <a href=\"https://pichub.site/image/aKv6p\" rel=\"nofollow\" target=\"_NEW\">https://pichub.site/image/aKv6p</a> <a href=\"\nhttps://pichub.site/image/aK0fy\" rel=\"nofollow\" target=\"_NEW\">\nhttps://pichub.site/image/aK0fy</a> <a href=\"\nhttps://pichub.site/image/aKLCb\" rel=\"nofollow\" target=\"_NEW\">\nhttps://pichub.site/image/aKLCb</a> <a href=\"\nhttps://pichub.site/image/aKrr0\" rel=\"nofollow\" target=\"_NEW\">\nhttps://pichub.site/image/aKrr0</a> <a href=\"\nhttps://pichub.site/image/aKoWV\" rel=\"nofollow\" target=\"_NEW\">\nhttps://pichub.site/image/aKoWV</a>\r\n\r\nGeneral\r\nFormat : Matroska\r\nFormat version : Version 4 / Version 2\r\nFile size : 923 MiB\r\nDuration : 54 min 45 s\r\nOverall bit rate : 2 357 kb/s\r\n\r\nVideo\r\nID : 1\r\nFormat : AVC\r\nFormat/Info : Advanced Video Codec\r\nFormat profile : High@L4.1\r\nFormat settings : CABAC / 4 Ref Frames\r\nFormat settings, CABAC : Yes\r\nFormat settings, RefFrames : 4 frames\r\nCodec ID : V_MPEG4/ISO/AVC\r\nDuration : 54 min 45 s\r\nBit rate : 2 200 kb/s\r\nWidth : 1 920 pixels\r\nHeight : 1 080 pixels\r\nDisplay aspect ratio : 16:9\r\nFrame rate mode : Constant\r\nFrame rate : 23.976 (24000/1001) FPS\r\nColor space : YUV\r\nChroma subsampling : 4:2:0\r\nBit depth : 8 bits\r\nScan type : Progressive\r\nBits/(Pixel*Frame) : 0.044\r\nStream size : 835 MiB (90%)\r\nWriting library : x264 core 155 r2901 7d0ff22\r\nDefault : Yes\r\nForced : No\r\n\r\nAudio\r\nID : 2\r\nFormat : E-AC-3\r\nFormat/Info : Enhanced Audio Coding 3\r\nCodec ID : A_EAC3\r\nDuration : 54 min 45 s\r\nBit rate mode : Constant\r\nBit rate : 224 kb/s\r\nChannel(s) : 2 channels\r\nChannel positions : Front: L R\r\nSampling rate : 48.0 kHz\r\nFrame rate : 187.500 FPS (256 SPF)\r\nCompression mode : Lossy\r\nStream size : 87.7 MiB (10%)\r\nLanguage : English\r\nService kind : Complete Main\r\nDefault : Yes\r\nForced : No\r\n\r\nText\r\nID : 3\r\nFormat : UTF-8\r\nCodec ID : S_TEXT/UTF8\r\nCodec ID/Info : UTF-8 Plain Text\r\nDuration : 54 min 42 s\r\nBit rate : 39 b/s\r\nCount of elements : 560\r\nStream size : 15.7 KiB (0%)\r\nTitle : SDH\r\nLanguage : English\r\nDefault : No\r\nForced : No","last_updated":"2018-07-16T12:02:00.122Z","parsed":{"xt":"urn:btih:4aa4c197e1d23e2be2de425c35e2f46be472ed80","dn":"Single AF 2018 1080p WEB-DL DD 2.0 x264 [MW]","tr":["udp://exodus.desync.com:6969","udp://open.demonii.com:1337","udp://tracker.coppersurfer.tk:6969","udp://tracker.leechers-paradise.org:6969","udp://zer0day.ch:1337"],"infoHash":"4aa4c197e1d23e2be2de425c35e2f46be472ed80","infoHashBuffer":{"type":"Buffer","data":[74,164,193,151,225,210,62,43,226,222,66,92,53,226,244,107,228,114,237,128]},"name":"Single AF 2018 1080p WEB-DL DD 2.0 x264 [MW]","announce":["udp://exodus.desync.com:6969","udp://open.demonii.com:1337","udp://tracker.coppersurfer.tk:6969","udp://tracker.leechers-paradise.org:6969","udp://zer0day.ch:1337"],"urlList":[]}}